<?xml version="1.0" encoding="utf-8"?>
<!-- Generator: Adobe Illustrator 17.0.0, SVG Export Plug-In . SVG Version: 6.00 Build 0)  -->
<!DOCTYPE svg PUBLIC "-//W3C//DTD SVG 1.1//EN" "http://www.w3.org/Graphics/SVG/1.1/DTD/svg11.dtd">
<svg version="1.1" xmlns="http://www.w3.org/2000/svg" xmlns:xlink="http://www.w3.org/1999/xlink" x="0px" y="0px" width="64px"
	 height="64px" viewBox="0 0 64 64" enable-background="new 0 0 64 64" xml:space="preserve">
			<path fill-rule="evenodd" clip-rule="evenodd" d="M51,30c7.18,0,13-5.82,13-13c0-7.18-5.82-13-13-13c-7.18,0-13,5.82-13,13
				C38,24.18,43.82,30,51,30z M45,14h3v-3c0-1.657,1.343-3,3-3c1.657,0,3,1.343,3,3v3h3c1.657,0,3,1.343,3,3s-1.343,3-3,3h-3v3
				c0,1.657-1.343,3-3,3c-1.657,0-3-1.343-3-3v-3h-3c-1.657,0-3-1.343-3-3S43.343,14,45,14z M56,49H27.779l-1.498-4.279L52.2,42.993
				v-0.001c1.132-0.074,2.092-0.776,2.536-1.762h0l4.83-10.733c-2.245,1.427-4.866,2.303-7.685,2.457l-1.877,4.171l-25.779,1.719
				L18.678,23h17.496C35.423,21.146,35,19.124,35,17H16.578l-1.747-4.991l-0.011,0.004C14.411,10.844,13.309,10,12,10H3
				c-1.657,0-3,1.343-3,3c0,1.657,1.343,3,3,3h6.872l11.55,33H16c-3.314,0-6,2.686-6,6c0,3.314,2.686,6,6,6s6-2.686,6-6h28
				c0,3.314,2.686,6,6,6s6-2.686,6-6C62,51.686,59.314,49,56,49z"/>
</svg>
